<svg width="120" height="40" xmlns="http://www.w3.org/2000/svg"><g fill="none" fill-rule="evenodd"><path d="M9.466 32.727c2.956 0 5.343-.744 7.162-2.232 1.818-1.488 2.727-3.556 2.727-6.204V8.4H13.83v1.16c-1.314-1.124-3.085-1.687-5.314-1.687-2.346 0-4.352.815-6.017 2.443C.833 11.947 0 13.967 0 16.381c0 2.46.833 4.517 2.499 6.17 1.665 1.652 3.671 2.478 6.017 2.478 2.229 0 4-.563 5.314-1.688v.493c0 1.359-.405 2.413-1.214 3.163-.81.75-1.871 1.125-3.185 1.125-.891 0-1.636-.158-2.235-.474-.598-.317-1.237-.885-1.917-1.705l-4.68 2.53c1.712 2.836 4.668 4.254 8.867 4.254zm.247-12.303c-1.22 0-2.23-.381-3.027-1.143-.797-.761-1.196-1.728-1.196-2.9s.393-2.132 1.179-2.882 1.8-1.125 3.044-1.125c1.15 0 2.123.38 2.92 1.142.798.762 1.197 1.717 1.197 2.865 0 1.172-.399 2.139-1.197 2.9-.797.762-1.77 1.143-2.92 1.143zm15.8-14.096c.939 0 1.719-.3 2.34-.897.622-.597.933-1.342.933-2.232 0-.867-.31-1.617-.933-2.25C27.232.316 26.452 0 25.513 0c-.938 0-1.712.316-2.322.95-.61.608-.915 1.358-.915 2.249 0 .89.305 1.635.915 2.232.61.598 1.384.897 2.322.897zm2.815 19.72V8.402h-5.63v17.646h5.63zm14.57 0l7.319-17.682H44.27l-4.223 10.898-4.258-10.898h-5.947l7.32 17.682h5.735zm15.378.528c2.228 0 4.058-.645 5.49-1.934v1.406h5.63V8.402h-5.63v1.406c-1.432-1.29-3.262-1.934-5.49-1.934-2.393 0-4.428.88-6.106 2.637-1.677 1.757-2.516 3.995-2.516 6.714 0 2.742.839 4.986 2.516 6.732 1.678 1.746 3.713 2.619 6.106 2.619zm1.161-4.781c-1.243 0-2.264-.422-3.062-1.266-.797-.843-1.196-1.945-1.196-3.304 0-1.336.399-2.432 1.196-3.287.798-.855 1.819-1.283 3.062-1.283 1.173 0 2.188.434 3.044 1.3.856.868 1.284 1.958 1.284 3.27 0 1.336-.428 2.431-1.284 3.287-.856.855-1.871 1.283-3.044 1.283zm24.106 4.78c2.392 0 4.428-.872 6.105-2.618 1.678-1.746 2.516-3.99 2.516-6.732 0-2.719-.838-4.957-2.516-6.714-1.677-1.758-3.713-2.637-6.105-2.637-2.23 0-4.06.645-5.49 1.934V.738h-5.63v25.31h5.63v-1.406c1.43 1.29 3.26 1.934 5.49 1.934zm-1.162-4.78c-1.173 0-2.187-.428-3.044-1.283-.856-.856-1.284-1.951-1.284-3.287 0-1.312.428-2.402 1.284-3.27.857-.866 1.871-1.3 3.044-1.3 1.244 0 2.264.428 3.062 1.283.797.855 1.196 1.951 1.196 3.287 0 1.36-.399 2.46-1.196 3.304-.798.844-1.818 1.266-3.062 1.266zm17.279 4.253V.738h-5.63v25.31h5.63zm11.19.528c2.065 0 3.854-.463 5.367-1.389 1.513-.926 2.645-2.303 3.396-4.13l-4.997-1.02c-.75 1.36-2.006 2.039-3.766 2.039-.938 0-1.747-.305-2.428-.914-.68-.61-1.138-1.441-1.372-2.496H120v-1.441c-.047-2.812-.938-5.074-2.674-6.785-1.737-1.71-3.883-2.566-6.44-2.566-2.628 0-4.845.88-6.651 2.637-1.807 1.757-2.71 3.995-2.71 6.714 0 2.742.903 4.986 2.71 6.732 1.806 1.746 4.011 2.619 6.615 2.619zm3.59-11.355h-7.285c.258-.867.74-1.547 1.443-2.039.704-.492 1.467-.738 2.288-.738.844 0 1.583.234 2.217.703.633.469 1.079 1.16 1.337 2.074z" fill="#FFF" fill-rule="nonzero"/><path d="M63.942 38.011a35.15 35.15 0 0010.5.675c3.555-.305 6.999-1.068 10.235-2.688-6.762 2.795-13.696 3.102-20.735 2.013m19.746-3.904c-.523.064-.99.275-1.422.58-.137-.119-.259.01-.38.048-.698.217-1.383.485-2.097.649-.065.015-.166.004-.179.151.906-.255 1.811-.451 2.657-.864a5.871 5.871 0 001.422-.578c.462-.156.892-.38 1.306-.64-.43.228-.94.293-1.307.654m2.403-1.603c-3.981 2.438-8.364 3.516-12.958 3.884.137 0 .274.006.41-.002 4.233-.248 8.272-1.249 12.051-3.274 1.197-.641 2.373-1.324 3.611-1.885.236-.107.458-.338.579.158.057.238.427.347.634.548.168.164.233.124.088.295-.11.129-.04.318-.207.413.127.066.265-.126.332.008.074.148-.037.268-.155.381a23.226 23.226 0 01-3.222 2.562A24.807 24.807 0 0179.57 39c-3.594.917-7.235 1.192-10.914.984-4.374-.247-8.5-1.383-12.448-3.17-1.425-.645-2.816-1.35-3.994-2.398a6.878 6.878 0 01-.355-.331c-.091-.094-.228-.203.027-.276.086-.025.147-.107.062-.154-.357-.197-.235-.564-.332-.855-.113-.342.095-.601.233-.822.167-.266.463-.25.778-.073 2.974 1.675 6.22 2.618 9.551 3.312 4.861 1.011 9.767 1.205 14.716.419a27.72 27.72 0 007.958-2.54c.41-.203.825-.395 1.238-.592" fill="#E2527A"/></g></svg>